<?xml version="1.0" encoding="utf-8"?>
<svg width="146px" height="96px" viewBox="0 0 146 96" version="1.1" xmlns:xlink="http://www.w3.org/1999/xlink" xmlns="http://www.w3.org/2000/svg">
  <defs>
    <path d="M146 0L146 0L146 96L0 96L0 0L146 0Z" id="path_1" />
    <clipPath id="clip_1">
      <use xlink:href="#path_1" clip-rule="evenodd" fill-rule="evenodd" />
    </clipPath>
  </defs>
  <g id="Frame" clip-path="url(#clip_1)">
    <path d="M146 0L146 0L146 96L0 96L0 0L146 0Z" id="Frame" fill="none" stroke="none" />
    <path d="M83.7827 12.6087C83.7827 10.6157 85.3984 9 87.3914 9C89.3844 9 91.0001 10.6157 91.0001 12.6087C91.0001 14.6017 89.3844 16.2174 87.3914 16.2174C85.3984 16.2174 83.7827 14.6017 83.7827 12.6087Z" id="Oval-5" fill="#000000" fill-rule="evenodd" stroke="none" />
    <path d="M32.6594 16.4528L41.9008 32.5134L50.8527 17.4646L54.8404 29.75L55.9553 28.8478L66.5686 10.2029" id="Vector-3" fill="none" fill-rule="evenodd" stroke="#000000" stroke-width="5" stroke-linecap="round" stroke-linejoin="round" />
    <path d="M8 19.8261C8 17.8331 9.61567 16.2174 11.6087 16.2174C13.6017 16.2174 15.2174 17.8331 15.2174 19.8261C15.2174 21.8191 13.6017 23.4348 11.6087 23.4348C9.61567 23.4348 8 21.8191 8 19.8261Z" id="Oval-6" fill="#000000" fill-rule="evenodd" stroke="none" />
    <g id="CRSS" transform="translate(0 32)">
      <g id="CRSS">
        <path d="M21.25 57.9906C27.4531 57.9906 33.0938 55.3656 36.6094 50.3656C37.0625 49.725 37.1875 49.0844 37.1875 48.4438C37.1875 46.3969 35.6406 45.2406 33.9844 45.2406C33.0312 45.2406 32.25 45.5063 31.4844 46.5219C29.4375 49.2094 26.2969 51.8344 21.25 51.8344C14.5938 51.8344 8.95312 47.0375 8.95312 38.725C8.95312 29.4438 15.4844 20.5375 22.0781 20.5375C25.5312 20.5375 27.5156 21.6313 28.8594 23.0375L28.8594 23.4906C28.8594 24.8344 30.1406 26.0531 31.875 26.0531C33.6562 26.0531 35.0781 24.5688 35.0781 22.85L35.0781 18.7563C35.0781 17.1469 33.8594 15.8031 32.125 15.8031C31.2344 15.8031 30.5938 16.1938 30.2031 16.5688C28.2812 15.4281 25.4062 14.3344 22.5312 14.3344C12.7344 14.3344 2.5625 25.9125 2.5625 38.725C2.5625 50.8813 11.0781 57.9906 21.25 57.9906ZM46.4015 57.9906C48.0578 57.9906 49.5421 56.6469 49.5421 54.85L49.5421 43.2563C51.0734 43.0063 52.6046 42.8813 53.8234 42.8813C56.0578 42.8813 60.9953 43.6469 68.9328 56.3188C69.5734 57.35 70.5265 57.9906 71.7453 57.9906C73.6671 57.9906 74.8859 56.4438 74.8859 54.85C74.8859 54.3969 74.8234 53.8813 74.5578 53.3813C71.3546 46.975 66.9484 42.7563 63.9328 40.3813C68.9953 38.1469 73.4015 34.4281 73.4015 27.975C73.4015 19.3344 65.339 14.3344 51.0109 14.3344L48.3859 14.3344C43.964 14.3344 43.2609 14.9125 43.2609 18.1781L43.2609 54.85C43.2609 56.6469 44.6046 57.9906 46.4015 57.9906ZM49.5421 37.3813L49.5421 20.475L50.8234 20.475C61.0578 20.475 67.0734 23.0375 67.0734 27.975C67.0734 34.1156 57.339 36.8656 49.5421 37.3813ZM93.0573 57.9906C101.37 57.9906 108.479 52.475 108.479 45.1156C108.479 38.85 103.807 34.8188 95.3541 32.3813C88.4479 30.3969 85.5104 28.5375 85.5104 25.5375C85.5104 22.3344 88.4479 20.225 94.276 20.225C99.0104 20.225 101.885 22.0844 102.214 24.3813C102.401 25.85 103.62 27.0688 105.151 27.0688C106.948 27.0688 108.292 25.6625 108.292 23.7406C108.292 18.1156 103.104 14.3344 94.276 14.3344C84.9948 14.3344 79.2916 19.1313 79.2916 25.9906C79.2916 33.2875 85.8854 36.4125 93.1823 38.4594C100.229 40.4438 102.339 42.8188 102.339 45.4438C102.339 49.0844 98.5573 51.975 93.1823 51.975C89.3385 51.975 84.9323 50.1781 83.526 46.2719C83.0104 44.8656 81.9166 43.8969 80.3229 43.8969C78.4635 43.8969 77.0573 45.3813 77.0573 47.1C77.0573 47.8031 77.3073 48.6469 77.7604 49.6C79.8073 53.9594 85.2448 57.9906 93.0573 57.9906ZM128.001 57.9906C136.314 57.9906 143.423 52.475 143.423 45.1156C143.423 38.85 138.751 34.8188 130.298 32.3813C123.392 30.3969 120.454 28.5375 120.454 25.5375C120.454 22.3344 123.392 20.225 129.22 20.225C133.954 20.225 136.829 22.0844 137.158 24.3813C137.345 25.85 138.564 27.0688 140.095 27.0688C141.892 27.0688 143.236 25.6625 143.236 23.7406C143.236 18.1156 138.048 14.3344 129.22 14.3344C119.939 14.3344 114.236 19.1313 114.236 25.9906C114.236 33.2875 120.829 36.4125 128.126 38.4594C135.173 40.4438 137.283 42.8188 137.283 45.4438C137.283 49.0844 133.501 51.975 128.126 51.975C124.283 51.975 119.876 50.1781 118.47 46.2719C117.954 44.8656 116.861 43.8969 115.267 43.8969C113.408 43.8969 112.001 45.3813 112.001 47.1C112.001 47.8031 112.251 48.6469 112.704 49.6C114.751 53.9594 120.189 57.9906 128.001 57.9906Z" />
      </g>
    </g>
  </g>
</svg>