<svg width="72" height="52" viewBox="0 0 72 52" fill="none" xmlns="http://www.w3.org/2000/svg">
<path d="M28.8125 36.7812L47.464 26L28.8125 15.2188V36.7812ZM70.3562 8.64225C70.8235 10.3313 71.147 12.5952 71.3625 15.4702C71.614 18.3452 71.722 20.825 71.722 22.9813L71.9375 26C71.9375 33.8703 71.3625 39.6562 70.3562 43.3577C69.4577 46.5923 67.3735 48.6765 64.139 49.575C62.45 50.0422 59.3595 50.3658 54.6158 50.5813C49.9438 50.8328 45.6672 50.9408 41.714 50.9408L36 51.1562C20.9422 51.1562 11.5625 50.5812 7.861 49.575C4.6265 48.6765 2.54225 46.5923 1.64375 43.3577C1.1765 41.6688 0.853251 39.4047 0.637501 36.5297C0.386001 33.6547 0.278 31.175 0.278 29.0188L0.0625 26C0.0625 18.1297 0.637499 12.3438 1.64375 8.64225C2.54225 5.40775 4.6265 3.3235 7.861 2.425C9.55 1.95775 12.6407 1.63425 17.3845 1.41875C22.0562 1.16725 26.3327 1.05925 30.286 1.05925L36 0.84375C51.0578 0.84375 60.4375 1.41875 64.139 2.425C67.3735 3.3235 69.4577 5.40775 70.3562 8.64225Z" fill="black"/>
</svg>